# AST/ASF file generated using VICON BodyLanguage
# -----------------------------------------------
:version 1.10
:name VICON
:units
  mass 1.0
  length 0.45
  angle deg
:documentation
   .ast/.asf automatically generated from VICON data using
   VICON BodyBuilder and BodyLanguage model FoxedUp or BRILLIANT.MOD
:root
   order TX TY TZ RX RY RZ
   axis XYZ
   position 0 0 0  
   orientation 0 -0 0 
:bonedata
  begin
     id 1 
     name lhipjoint
     direction 0.500677 -0.737119 0.453848 
     length 2.34727 
     axis 0 -0 0  XYZ
  end
  begin
     id 2 
     name lfemur
     direction 0.34202 -0.939693 0  
     length 7.53653  
     axis 0 -0 20  XYZ
    dof rx ry rz
    limits (-160.0 20.0)
           (-70.0 70.0)
           (-60.0 70.0)
  end
  begin
     id 3 
     name ltibia
     direction 0.34202 -0.939693 0   
     length 6.85572   
     axis 0 -0 20   XYZ
    dof rx
    limits (-10.0 170.0)
  end
  begin
     id 4 
     name lfoot
     direction 0.155313 -0.426718 0.890949   
     length 2.18324   
     axis -90 -1.13533e-015 20   XYZ
    dof rx rz
    limits (-45.0 90.0)
           (-70.0 20.0)
  end
  begin
     id 5 
     name ltoes
     direction 1.53474e-011 -4.21647e-011 1   
     length 1.06748   
     axis -90 -1.13533e-015 20   XYZ
    dof rx
    limits (-90.0 20.0)
  end
  begin
     id 6 
     name rhipjoint
     direction -0.632471 -0.659587 0.406111   
     length 2.62319  
     axis 0 -0 0  XYZ 
  end
  begin
     id 7 
     name rfemur
     direction -0.34202 -0.939693 0   
     length 7.21735   
     axis 0 -0 -20   XYZ
    dof rx ry rz
    limits (-160.0 20.0)
           (-70.0 70.0)
           (-70.0 60.0)
  end
  begin
     id 8 
     name rtibia
     direction -0.34202 -0.939693 0   
     length 7.02558   
     axis 0 -0 -20   XYZ
    dof rx
    limits (-10.0 170.0)
 end
 begin
     id 9 
     name rfoot
     direction -0.16057 -0.441164 0.882945   
     length 2.10014  
     axis -90 1.13533e-015 -20   XYZ
    dof rx rz
    limits (-45.0 90.0)
           (-20.0 70.0)
  end
  begin
     id 10 
     name rtoes
     direction -1.53553e-011 -4.2192e-011 1   
     length 1.02554   
     axis -90 1.13533e-015 -20   XYZ
    dof rx
    limits (-90.0 20.0)
  end
  begin
     id 11 
     name lowerback
     direction 0.0401429 0.998861 -0.0258085   
     length 1.80848   
     axis 0 -0 0   XYZ
    dof rx ry rz
    limits (-20.0 45.0)
           (-30.0 30.0)
           (-30.0 30.0)
  end
  begin
     id 12 
     name upperback
     direction -0.0130978 0.999914 -0.000352645   
     length 1.8116   
     axis 0 -0 0   XYZ
    dof rx ry rz
    limits (-20.0 45.0)
           (-30.0 30.0)
           (-30.0 30.0)
  end
  begin
     id 13 
     name thorax
     direction -0.0300198 0.999453 0.0138573   
     length 1.81778   
     axis 0 -0 0   XYZ
    dof rx ry rz
    limits (-20.0 45.0)
           (-30.0 30.0)
           (-30.0 30.0)
  end
  begin
     id 14 
     name lowerneck
     direction -0.0401726 0.999191 -0.00173647   
     length 2.10594   
     axis 0 -0 0   XYZ
    dof rx ry rz
    limits (-20.0 45.0)
           (-30.0 30.0)
           (-30.0 30.0)
  end
  begin
     id 15 
     name upperneck
     direction 0.0119835 0.998501 0.0534085   
     length 2.07325   
     axis 0 -0 0   XYZ
    dof rx ry rz
    limits (-20.0 45.0)
           (-30.0 30.0)
           (-30.0 30.0)
  end
  begin
     id 16
     name head
     direction 0.00628309 0.999826 0.0175921  
     length 2.15096  
     axis 0 -0 0   XYZ
    dof rx ry rz
    limits (-20.0 45.0)
           (-30.0 30.0)
           (-30.0 30.0)
  end
  begin
     id 17 
     name lclavicle
     direction 0.895501 0.429681 -0.115981  
     length 4.18092  
     axis 0 -0 0   XYZ
    dof ry rz
    limits (-20.0 10.0)
           (0.0 20.0)
  end
  begin
     id 18 
     name lhumerus
     direction 1 -4.48961e-011 -3.38433e-028   
     length 5.77237   
     axis 180 -30 -90   XYZ
    dof rx ry rz
    limits (-60.0 90.0)
           (-90.0 90.0)
           (-90.0 90.0)
  end
  begin
     id 19
     name lradius
     direction 1 -4.4901e-011 1.11983e-026   
     length 2.91878   
     axis 180 -30 -90   XYZ
    dof rx
    limits (-10.0 170.0)
  end
  begin
     id 20
     name lwrist
     direction 1 -4.48934e-011 1.88176e-026   
     length 1.45939   
     axis -1.23311e-014 90 90   XYZ
    dof ry
    limits (-180.0 0.0)
 end
  begin
     id 21 
     name lhand
     direction 1 -4.4895e-011 3.76352e-026   
     length 1.06566   
     axis -2.40147e-014 90 90   XYZ
    dof rx rz
    limits (-90.0 90.0)
           (-45.0 45.0)
  end
  begin
     id 22 
     name lfingers
     direction 1 -4.49005e-011 7.52705e-026   
     length 0.859162   
     axis -4.80295e-014 90 90   XYZ
    dof rx
    limits (0.0 90.0)
  end
  begin
     id 23
     name lthumb
     direction 0.707107 -6.34885e-011 0.707107   
     length 1.23359   
     axis -90 45 -9.86935e-015   XYZ
    dof rx rz
    limits (-45.0 45.0)
           (-45.0 45.0)
  end
  begin
     id 24 
     name rclavicle
     direction -0.91006 0.40451 -0.0903492   
     length 4.23293  
     axis 0 -0 0   XYZ 
    dof ry rz
    limits (-10.0 20.0)
           (-20.0 0.0)
  end
  begin
     id 25 
     name rhumerus
     direction -1 -4.4897e-011 1.7415e-027  
     length 5.49854   
     axis 180 30 90   XYZ
    dof rx ry rz
    limits (-90.0 60.0)
           (-90.0 90.0)
           (-90.0 90.0)
  end
  begin
     id 26 
     name rradius
     direction -1 -4.48963e-011 1.21259e-026   
     length 3.1186   
     axis 180 30 90   XYZ
    dof rx
    limits (-10.0 170.0)
  end
  begin
     id 27 
     name rwrist
     direction -1 -4.48967e-011 1.88176e-026   
     length 1.5593   
     axis -1.23311e-014 -90 -90   XYZ
    dof ry
    limits (-180.0 0.0)
  end
  begin
     id 28
     name rhand
     direction -1 -4.4895e-011 3.76352e-026   
     length 0.71207   
     axis -2.40147e-014 -90 -90   XYZ
    dof rx rz
    limits (-90.0 90.0)
           (-45.0 45.0)
  end
  begin
     id 29
     name rfingers
     direction -1 -4.49005e-011 7.52705e-026   
     length 0.574089   
     axis -4.80295e-014 -90 -90   XYZ
    dof rx
    limits (0.0 90.0)
  end
  begin
     id 30
     name rthumb
     direction -0.707107 -6.34982e-011 0.707107   
     length 0.824281   
     axis -90 -45 9.86935e-015   XYZ
    dof rx rz
    limits (-45.0 45.0)
           (-45.0 45.0)
  end
:hierarchy
  begin
    root lhipjoint rhipjoint lowerback
    lhipjoint lfemur
    lfemur ltibia
    ltibia lfoot
    lfoot ltoes
    rhipjoint rfemur
    rfemur rtibia
    rtibia rfoot
    rfoot rtoes
    lowerback upperback
    upperback thorax
    thorax lowerneck lclavicle rclavicle
    lowerneck upperneck
    upperneck head
    lclavicle lhumerus
    lhumerus lradius
    lradius lwrist
    lwrist lhand lthumb
    lhand lfingers
    rclavicle rhumerus
    rhumerus rradius
    rradius rwrist
    rwrist rhand rthumb
    rhand rfingers
  end

#!OML:ASF C:\ViconDB\ViconDB\414\Spring2016\042216\male.ASF
:FULLY-SPECIFIED
:DEGREES
1
root -33.7929 17.2486 14.3145 -158.777 84.2552 -162.105
lowerback -2.95234 -1.62398 3.77635
upperback -0.406077 -2.27261 -0.671743
thorax 1.06301 -1.11929 -2.89028
lowerneck 0.655684 9.20315 0.927965
upperneck -3.09378 12.2067 -4.85349
head -0.693173 6.15954 -1.7143
rclavicle 4.26704e-014 1.78906e-015
rhumerus -31.7597 -3.94643 -92.9348
rradius 27.9009
rwrist 32.5626
rhand 14.4872 -18.8068
rfingers 7.12502
rthumb 39.3688 -44.2201
lclavicle 4.26704e-014 1.78906e-015
lhumerus -35.1106 13.8837 87.4655
lradius 31.6327
lwrist -15.893
lhand -4.96726 11.5075
lfingers 7.12502
lthumb 20.8249 40.4099
rfemur -8.38207 10.4172 18.3702
rtibia 21.3237
rfoot -18.5732 -9.28402
rtoes -11.4631
lfemur -8.62583 -3.03743 -18.4293
ltibia 24.2572
lfoot -26.091 16.2275
ltoes -15.0702
2
root -33.79 17.2488 14.311 -158.15 84.2627 -161.489
lowerback -2.98379 -1.61179 3.83913
upperback -0.388923 -2.26009 -0.663869
thorax 1.09712 -1.11182 -2.91842
lowerneck 0.63782 9.20748 0.98403
upperneck -3.05332 12.2137 -4.94041
head -0.668469 6.16293 -1.74701
rclavicle 8.52289e-015 -9.93923e-016
rhumerus -31.7595 -3.77204 -92.9887
rradius 27.9572
rwrist 32.4534
rhand 14.4772 -18.5721
rfingers 7.12502
rthumb 39.3593 -43.9883
lclavicle 8.52289e-015 -9.93923e-016
lhumerus -35.1102 13.9333 87.4054
lradius 31.6128
lwrist -15.9617
lhand -4.83142 11.2495
lfingers 7.12502
lthumb 20.9554 40.1375
rfemur -8.35441 10.4631 18.4231
rtibia 21.249
rfoot -18.5661 -9.28147
rtoes -11.6043
lfemur -8.65215 -3.08309 -18.3721
ltibia 24.3286
lfoot -26.1505 16.2584
ltoes -14.9954
3
root -33.7886 17.2495 14.309 -156.189 84.227 -159.593
lowerback -3.02038 -1.5977 4.01572
upperback -0.412998 -2.24866 -0.591873
thorax 1.08984 -1.10584 -2.94369
lowerneck 0.648498 9.21435 0.919805
upperneck -3.03217 12.2227 -4.94592
head -0.666877 6.16815 -1.73846
rclavicle 3.36381e-014 -1.09332e-014
rhumerus -31.7481 -3.84948 -92.9457
rradius 27.9035
rwrist 32.7033
rhand 14.5159 -18.6039
rfingers 7.12502
rthumb 39.3957 -44.0094
lclavicle 3.36381e-014 -1.09332e-014
lhumerus -35.1463 14.0512 87.3292
lradius 31.5802
lwrist -15.9844
lhand -5.1329 11.521
lfingers 7.12502
lthumb 20.6657 40.4407
rfemur -8.43027 10.5722 18.6216
rtibia 21.2299
rfoot -18.3714 -9.36179
rtoes -11.8948
lfemur -8.74183 -2.97955 -18.1556
ltibia 24.3308
lfoot -26.1572 16.1976
ltoes -15.0763
4
root -33.7827 17.2494 14.3046 -157.863 84.3012 -161.163
lowerback -2.95316 -1.59645 3.78995
upperback -0.381165 -2.23742 -0.634576
thorax 1.09279 -1.10071 -2.85908
lowerneck 0.71999 9.21302 0.954335
upperneck -3.01996 12.2211 -4.96562
head -0.671754 6.16773 -1.75359
rclavicle -9.74666e-015 9.93923e-015
rhumerus -31.7613 -3.79882 -92.9702
rradius 27.8819
rwrist 32.6963
rhand 14.5577 -18.7956
rfingers 7.12502
rthumb 39.4351 -44.1896
lclavicle -9.74666e-015 9.93923e-015
lhumerus -35.1891 14.0507 87.2777
lradius 31.5537
lwrist -16.0729
lhand -5.37306 11.4778
lfingers 7.12502
lthumb 20.4349 40.4225
rfemur -8.26619 10.5998 18.4324
rtibia 21.2191
rfoot -18.5372 -9.37223
rtoes -11.4781
lfemur -8.57321 -3.0917 -18.3838
ltibia 24.3274
lfoot -26.2239 16.2861
ltoes -14.9577
5
root -33.7798 17.2485 14.3017 -157.94 84.3328 -161.235
lowerback -3.06405 -1.5851 3.69067
upperback -0.264366 -2.22688 -0.569769
thorax 1.2822 -1.09046 -2.74261
lowerneck 0.541424 9.2176 0.78558
upperneck -3.02512 12.2265 -4.98343
head -0.652353 6.17127 -1.7225
rclavicle 1.1281e-014 -4.37326e-015
rhumerus -31.5473 -3.60626 -92.9422
rradius 27.86
rwrist 32.5741
rhand 14.5494 -18.9972
rfingers 7.12502
rthumb 39.4273 -44.3935
lclavicle 1.1281e-014 -4.37326e-015
lhumerus -35.0031 14.1367 87.353
lradius 31.4853
lwrist -16.1703
lhand -5.2565 11.2984
lfingers 7.12502
lthumb 20.547 40.231
rfemur -8.23593 10.6726 18.4071
rtibia 21.1976
rfoot -18.4389 -9.41534
rtoes -11.982
lfemur -8.5569 -3.08318 -18.4193
ltibia 24.329
lfoot -26.2261 16.2855
ltoes -14.9857
6
root -33.7724 17.2478 14.2943 -157.506 84.423 -160.834
lowerback -3.18111 -1.52316 3.72375
upperback -0.259819 -2.14997 -0.57254
thorax 1.35685 -1.05014 -2.76525
lowerneck 0.543568 9.20287 0.868903
upperneck -2.96047 12.209 -5.08616
head -0.621535 6.16215 -1.76467
rclavicle 1.43063e-014 -3.97569e-016
rhumerus -31.5581 -3.63503 -92.9241
rradius 27.8708
rwrist 32.6014
rhand 14.6151 -19.1961
rfingers 7.12502
rthumb 39.4892 -44.5742
lclavicle 1.43063e-014 -3.97569e-016
lhumerus -35.0234 14.0606 87.3504
lradius 31.4688
lwrist -16.1979
lhand -5.18938 11.3202
lfingers 7.12502
lthumb 20.6114 40.2459
rfemur -8.27823 10.5941 18.381
rtibia 21.2335
rfoot -18.4514 -9.22789
rtoes -11.9088
lfemur -8.51117 -3.12299 -18.4412
ltibia 24.27
lfoot -26.2287 16.4165
ltoes -14.9505
7
root -33.7705 17.2483 14.2913 -156.955 84.4391 -160.294
lowerback -3.04686 -1.53477 3.85119
upperback -0.346114 -2.1618 -0.625723
thorax 1.18523 -1.06017 -2.88569
lowerneck 0.571808 9.22471 1.01395
upperneck -2.84555 12.2426 -5.12997
head -0.577756 6.17632 -1.79789
rclavicle 3.80983e-014 -6.36111e-015
rhumerus -31.6322 -3.64742 -93.0555
rradius 27.8624
rwrist 32.6241
rhand 14.4249 -18.6681
rfingers 7.12502
rthumb 39.3101 -44.0986
lclavicle 3.80983e-014 -6.36111e-015
lhumerus -35.1541 14.108 87.1443
lradius 31.4366
lwrist -16.3507
lhand -4.82824 11.437
lfingers 7.12502
lthumb 20.9584 40.3247
rfemur -8.26763 10.7115 18.4226
rtibia 21.1932
rfoot -18.4237 -9.37335
rtoes -12.1166
lfemur -8.50491 -3.20807 -18.3998
ltibia 24.2867
lfoot -26.2844 16.4672
ltoes -14.8809
8
root -33.7713 17.2487 14.2884 -157.418 84.4938 -160.734
lowerback -2.96609 -1.62105 3.66442
upperback -0.2664 -2.27154 -0.4573
thorax 1.22751 -1.1142 -2.61036
lowerneck 0.214582 9.32238 0.540988
upperneck -2.73331 12.377 -5.12269
head -0.508308 6.24364 -1.69622
rclavicle 4.13162e-014 2.38542e-015
rhumerus -31.4026 -3.21107 -92.92
rradius 27.8252
rwrist 32.7176
rhand 14.4512 -18.5876
rfingers 7.12502
rthumb 39.3349 -44.0109
lclavicle 4.13162e-014 2.38542e-015
lhumerus -34.991 14.5861 87.277
lradius 31.4235
lwrist -16.4615
lhand -5.11375 11.4579
lfingers 7.12502
lthumb 20.6841 40.3757
rfemur -8.20536 10.8449 18.3565
rtibia 21.1084
rfoot -18.3745 -9.38216
rtoes -11.9609
lfemur -8.49354 -3.26165 -18.4821
ltibia 24.3207
lfoot -26.2774 16.5959
ltoes -15.027
9
root -33.7672 17.2476 14.2832 -155.126 84.44 -158.447
lowerback -2.96224 -1.64456 3.89626
upperback -0.288142 -2.31068 -0.358938
thorax 1.19511 -1.1335 -2.63974
lowerneck 0.194382 9.37874 0.408418
upperneck -2.66872 12.4543 -5.06438
head -0.494504 6.28173 -1.65388
rclavicle 2.76683e-014 2.38542e-015
rhumerus -31.4119 -2.94562 -92.959
rradius 27.8178
rwrist 32.553
rhand 14.2967 -18.7606
rfingers 7.12502
rthumb 39.1892 -44.2262
lclavicle 2.76683e-014 2.38542e-015
lhumerus -35.0546 14.7398 87.247
lradius 31.4289
lwrist -16.493
lhand -5.47633 11.712
lfingers 7.12502
lthumb 20.3357 40.6673
rfemur -8.18008 10.8877 18.5953
rtibia 21.0475
rfoot -18.3459 -9.40775
rtoes -11.9502
lfemur -8.49046 -3.34159 -18.2468
ltibia 24.3348
lfoot -26.3144 16.6536
ltoes -14.9056
10
root -33.7632 17.2527 14.28 -154.582 84.4779 -157.898
lowerback -2.95433 -1.63569 3.91594
upperback -0.293149 -2.29916 -0.344602
thorax 1.1862 -1.12789 -2.63526
lowerneck 0.184953 9.39762 0.351839
upperneck -2.62616 12.4809 -4.99271
head -0.487088 6.29389 -1.62105
rclavicle -6.15611e-015 7.55382e-015
rhumerus -31.3963 -3.04018 -92.9047
rradius 27.805
rwrist 32.7296
rhand 14.441 -18.7634
rfingers 7.12502
rthumb 39.3252 -44.1895
lclavicle -6.15611e-015 7.55382e-015
lhumerus -35.0879 14.8783 87.1407
lradius 31.3876
lwrist -16.6521
lhand -5.34348 11.7019
lfingers 7.12502
lthumb 20.4634 40.6435
rfemur -8.14211 10.996 18.6289
rtibia 21.0014
rfoot -18.3457 -9.47116
rtoes -12.0871
lfemur -8.50082 -3.5323 -18.2063
ltibia 24.3389
lfoot -26.3759 16.7145
ltoes -14.5818
11
root -33.7573 17.2533 14.2756 -156.932 84.6632 -160.223
lowerback -2.95403 -1.61863 3.63921
upperback -0.28916 -2.26692 -0.418227
thorax 1.20024 -1.11286 -2.55502
lowerneck 0.186249 9.41678 0.319146
upperneck -2.57897 12.5079 -4.94049
head -0.4773 6.30633 -1.59831
rclavicle 3.09856e-014 8.15017e-015
rhumerus -31.4035 -2.99412 -92.9292
rradius 27.8064
rwrist 32.4884
rhand 14.3444 -18.9662
rfingers 7.12502
rthumb 39.2342 -44.4187
lclavicle 3.09856e-014 8.15017e-015
lhumerus -35.1061 14.9411 87.0679
lradius 31.3424
lwrist -16.7702
lhand -5.47759 11.6633
lfingers 7.12502
lthumb 20.3345 40.6187
rfemur -8.07064 10.9586 18.3168
rtibia 20.9559
rfoot -18.3383 -9.35869
rtoes -12.0783
lfemur -8.42139 -3.55586 -18.5325
ltibia 24.3427
lfoot -26.4281 16.7832
ltoes -14.4188
